PathFileType	4	(X/Y/Z)	Patient4_TMGait_0pt5_02_left_25.trc.trc
DataRate	CameraRate	NumFrames	NumMarkers	Units	OrigDataRate	OrigDataStartFrame	OrigNumFrames
74.866310160428	74.866310160428	7	33	mm	74.866310160428	124	       141
Frame#	Time	Sacral			L.Shoulder			Chest			R.Shoulder			Neck			R.ASIS			L.ASIS			R.Thigh.Superior			R.Thigh.Lateral			R.Thigh.Inferior			R.Patella			L.Thigh.Superior			L.Thigh.Lateral			L.Thigh.Inferior			L.Patella			L.Shank.Superior			L.Shank.Lateral			L.Shank.Inferior			R.Shank.Superior			R.Shank.Lateral			R.Shank.Inferior			R.Heel			R.Midfoot.Superior			R.Midfoot.Lateral			R.Toe			L.Heel			L.Midfoot.Lateral			L.Midfoot.Superior			L.Toe			L.Elbow			L.Wrist			R.Elbow			R.Wrist			
		X1	Y1	Z1	X2	Y2	Z2	X3	Y3	Z3	X4	Y4	Z4	X5	Y5	Z5	X6	Y6	Z6	X7	Y7	Z7	X8	Y8	Z8	X9	Y9	Z9	X10	Y10	Z10	X11	Y11	Z11	X12	Y12	Z12	X13	Y13	Z13	X14	Y14	Z14	X15	Y15	Z15	X16	Y16	Z16	X17	Y17	Z17	X18	Y18	Z18	X19	Y19	Z19	X20	Y20	Z20	X21	Y21	Z21	X22	Y22	Z22	X23	Y23	Z23	X24	Y24	Z24	X25	Y25	Z25	X26	Y26	Z26	X27	Y27	Z27	X28	Y28	Z28	X29	Y29	Z29	X30	Y30	Z30	X31	Y31	Z31	X32	Y32	Z32	X33	Y33	Z33	

124	33.502928571429	575.493036705129	1000.415116622481	509.456904384639	714.095124760804	1426.092963037276	305.709616769279	842.416778347401	1359.804215888642	448.690232478874	785.592689749590	1434.645827795516	633.464371310381	735.844004814739	1486.874372649186	455.447425063993	809.497537748575	934.891388800708	602.276341321623	770.907858921197	950.855756268898	328.617904364326	808.508610412995	721.025890998016	576.915920698524	708.409306500319	626.966713086176	643.165800283338	765.161086135857	562.254710496558	560.212354935077	745.213071048673	475.709918035095	564.863981191698	849.242779846059	769.614627362708	361.414731011299	794.820834467090	638.350506709841	290.313106947414	898.811475933622	580.586068315997	349.177824278463	921.206984396946	513.084623032615	349.969779460742	905.653485397687	439.649010864745	340.058333239950	837.659792962053	310.612996987259	290.608124403242	922.277393258631	211.480168902107	348.191714034292	705.482565376193	391.342468210493	574.152003715832	621.539501504539	298.834897018249	637.614554497031	648.346199543115	199.267455384872	574.203474545213	494.960335467529	42.613196916538	543.617110950176	665.882453070708	95.993927298976	582.945843676437	575.916452867642	35.877332314771	620.764701287989	784.086548482640	43.048293524301	615.971403618012	834.216462140298	37.871837800922	388.929819569221	907.292272206678	39.403212364325	307.784643371337	981.210857958458	112.288184939898	328.367149033792	1113.181083471668	76.643317731155	301.391630697632	578.735735305698	1094.548025771403	220.051374841036	587.614036895277	832.297294861395	227.138279208668	903.896400961880	1111.226643655299	738.898888505875	1122.122117922252	1132.478027969919	614.166068744816	
125	33.516285714286	577.186938041614	998.949957243520	507.005308643666	714.763116858605	1423.661598327767	301.615912898215	843.008369537926	1358.905643243914	445.409796338654	785.110325526980	1434.506655938178	629.555268094232	735.697387586959	1485.484126897070	451.015067211811	811.101886282803	933.983468987066	601.343613932440	773.771523331480	949.074924651148	327.658213818881	809.469785713431	719.516404562836	576.131796920958	708.697175596525	625.723988832677	641.879127140457	765.322638092368	560.642593549419	559.072450369201	744.559080763064	473.544688869987	563.490023730335	852.638777195969	767.799286780239	361.228441266201	797.357930163732	636.843128529855	290.549024836764	901.170285095995	578.997964897418	349.577935163341	922.120351258092	510.403245211535	350.985396911142	905.956969934921	436.645784058815	340.835627638912	836.170935963775	308.765056962362	290.895590176598	918.303010546169	208.242339134305	349.456139613392	703.487546647080	389.802032689969	573.009698019863	618.293044633005	298.589280979560	636.791995016649	643.415826719348	198.552634113253	573.586564825653	488.256445391858	42.899129268427	543.652817504980	659.325201700176	95.958094357939	582.775492481081	569.259919782416	35.967295475652	620.719595425051	777.486107754580	42.744639927973	616.057700877093	825.767732324027	37.658764228435	389.787549441926	898.784204081716	37.754131503438	308.428080151608	975.033530034111	108.044508227107	329.884816362643	1106.122000926745	68.352067354953	302.312636973409	582.221648685175	1090.591537994014	216.636287502522	595.044118887813	828.457197514938	223.770303250530	903.998838359688	1111.431862965218	735.826591020238	1120.061406132889	1135.061022239871	607.929204555759	
126	33.529642857143	578.766494631947	997.649829389332	504.461648414596	715.635364792142	1421.280998682571	297.391571835935	843.713505227562	1358.065110432404	442.069815823372	784.693961192114	1434.509303050710	625.535394572179	735.747545503123	1484.208124736070	446.401601571711	812.645172624344	933.177288558267	600.265794628534	776.569850321128	947.501559065032	326.643114564215	810.620006831470	718.153698433707	575.190305234339	709.310153559030	624.519090536906	640.415566859260	765.912145860132	559.086145899564	557.754262422228	744.486932340743	471.281414363272	562.063250201685	855.903957683739	766.158700919302	361.128109730001	800.119038460343	635.694648484364	290.545365138771	903.515210867746	577.661730331245	350.145459586679	923.165247292278	508.053967193578	352.002832118221	906.413909082490	433.994928611000	341.559339058508	835.046758808733	307.235164991709	290.884878946680	914.553661016028	205.370197524824	350.588380667641	701.877412792545	388.282146248070	571.787510173293	615.329254839908	298.506310614892	635.891094897502	638.678786087048	197.975773803731	572.959909245074	481.601054554186	43.542586858878	543.717124963524	652.911246526803	95.982666912442	582.636554639282	562.665358224245	36.238196813423	620.677530654144	770.964268376916	42.322353730732	616.166577503811	817.600942021813	37.511063416399	390.376650642618	890.627731545444	36.440425710175	308.876574588920	968.913538359100	104.407168682160	331.279756183625	1099.224320590104	61.182287990873	303.217568439770	586.272136156620	1086.562577533135	212.988845850270	603.015872786522	824.592631475913	220.058759353599	903.611309238014	1111.620942314395	733.054537721602	1117.664813780838	1136.651467342324	602.061602594536	
127	33.543000000000	580.185160163514	996.605576568623	501.853007041343	716.684764152400	1419.065104798941	293.108354327914	844.520810996556	1357.346628919230	438.702645681608	784.403640088592	1434.717650348936	621.455290073412	736.015905256486	1483.132221289071	441.684931015126	814.078876834182	932.548062434999	599.014967427168	779.210629776864	946.242052973877	325.514671634142	811.926299948802	717.029988825436	574.055628812870	710.261913392189	623.424367168412	638.777921909889	766.969893939052	557.668958430332	556.273253556235	745.074758689400	468.987124475733	560.642797968021	858.951245644600	764.831396996987	361.026860810332	802.991621978853	634.962045234240	290.263288646377	905.749087220135	576.638872800420	350.750301348362	924.283373765400	506.135264752160	352.913128002285	906.960212426039	431.787187779648	342.169572812928	834.231858650996	306.099742132963	290.575055494814	911.036018086067	202.979883934977	351.531877478918	700.716773173072	386.851847153299	570.521012805428	612.692021873713	298.675430923908	634.924327164689	634.198567299143	197.622639002103	572.352865440147	475.033601183926	44.693475810287	543.813846993094	646.704377549563	96.098457133642	582.553577183693	556.157925606319	36.775290824303	620.637681085737	764.523345417025	41.776552216839	616.295241738371	809.907928759953	37.435137715237	390.712827318561	882.992556806297	35.497518907206	309.136842232266	962.926085321165	101.521049791189	332.474038869421	1092.592482327476	55.452672045233	304.025626977679	590.918204815563	1082.573501154133	209.144393621382	611.503956354591	820.815736675017	216.013651216234	902.729424703888	1111.835980121866	730.579472828230	1114.977447727890	1137.165505038364	596.591687979774	
128	33.556357142857	581.418775529164	995.892523579599	499.188546937767	717.872941446790	1417.125341213570	288.837248548555	845.410533786873	1356.813311398213	435.339907572955	784.282271768664	1435.183296384569	617.367293273486	736.501253878292	1482.332712831860	436.950272956949	815.364963372758	932.165464456644	597.574560379784	781.631562186339	945.378167237860	324.213530969908	813.362998172966	716.230084604852	572.716219822953	711.563298233423	622.510287121091	636.984093308605	768.545440287306	556.473065855499	554.672609071364	746.399664637419	466.737537676867	559.306250424204	861.719276140921	763.913825078566	360.807839260552	805.818177841478	634.644366512459	289.694755386342	907.758530315497	575.933492082093	351.244481509938	925.363771418591	504.669913700875	353.622818895213	907.468668934538	430.043435896052	342.624145807161	833.566466363218	305.376884938849	290.006726959696	907.652655390298	201.110446549233	352.260940998903	700.081610983851	385.579648292967	569.260170840834	610.436634990933	299.186325457581	633.911969976463	630.049364013853	197.579402286664	571.798948862556	468.606613138934	46.510112293119	543.941840922314	640.771349364020	96.337865690481	582.549422980487	549.766549318298	37.673034006808	620.597413925028	758.155999866851	41.117227148387	616.437455378279	802.724203813053	37.423838062320	390.836166394639	875.891352114499	34.907822446357	309.234856282636	957.051658558187	99.416004898810	333.424202833219	1086.218962097586	51.255476776499	304.678814374601	596.168530879735	1078.744978775151	205.135948294379	620.500820503467	817.251007259283	211.643724476218	901.337838082664	1112.117176585283	728.385399808759	1112.018918389711	1136.522445636147	591.552262564570	
129	33.569714285714	582.467272130511	995.560200684052	496.458245822179	719.157348407011	1415.557842870994	284.641151739465	846.357414149532	1356.520229062294	432.011250624477	784.346254771320	1435.936342424109	613.321973241952	737.179697881932	1481.866576358205	432.281593664097	816.479615029541	932.082477532570	595.938776331422	783.805680160024	944.957297047162	322.689703766182	814.920784803471	715.819752954608	571.185861564389	713.227239302590	621.835422712993	635.064081916609	770.696124565188	555.567874097441	553.015077611492	748.532648236512	464.608956783101	558.137322764230	864.166487159869	763.432887241839	360.335452728201	808.392346658304	634.677712314829	288.857915081580	909.409447837286	575.489709852323	351.484794677406	926.247187096057	503.613073951458	354.064183818397	907.764406261604	428.725721185693	342.895661236875	832.826945671962	305.027547953305	289.249330790138	904.249308383803	199.734856063210	352.776127414816	700.055788317336	384.525963510346	568.061800205157	608.630696743494	300.120280384566	632.877796782151	626.313362425100	197.925045716810	571.329914301246	462.386130660279	49.147896878965	544.092226538628	635.176916132185	96.732966445122	582.640428472587	543.523619558488	39.031005914108	620.551269911074	751.844555097626	40.370200306224	616.583614734217	795.978414028173	37.460970356109	390.800102195216	869.233400967745	34.616027631193	309.208178400950	951.220630583063	98.028644578455	334.121786241800	1080.030400590288	48.490934547258	305.149805450476	602.004565338819	1075.196620380829	200.989597799462	630.018759181697	814.028613062078	206.958188589952	899.411441767566	1112.494350654237	726.443614368820	1108.780626919635	1134.644688195594	586.985378098715	
130	33.583071428571	583.352136309032	995.625874098008	493.637833420574	720.499387122741	1414.432788545400	280.568495081695	847.334390346152	1356.508561515845	428.743308684713	784.580725992241	1436.980357473989	609.364237994583	738.008706631167	1481.764648850122	427.752249277025	817.414148946316	932.326161087719	594.110114215939	785.738328740019	944.989255178043	320.912709550790	816.612991335361	715.837229692645	569.497138955914	715.275771696234	621.437446843889	633.054236301942	773.484866089183	555.001040976246	551.368821953246	751.535138870088	462.669781729153	557.209309226795	866.262763868981	763.336793834374	359.472049273981	810.478426850564	634.949358373340	287.786061416377	910.557235065055	575.208970571328	351.354254740474	926.746905067834	502.875238759124	354.196862241561	907.652674798958	427.758082697413	342.963325570935	831.769536810958	304.971250168818	288.381468285591	900.657297728177	198.780333080329	353.092555616452	700.727672466534	383.736818528969	566.979215071444	607.354235712965	301.542784859493	631.843163147787	623.077415824561	198.725266242816	570.968910262593	456.451232401286	52.749290429029	544.245897537799	629.979507798840	97.314206405600	582.831722194997	537.464870611421	40.950602591739	620.489839194678	745.562088818394	39.573934557077	616.721517728004	789.538594224730	37.526520870281	390.660866123789	862.872713298746	34.546574639268	309.097750508001	945.345420386671	97.234594540108	334.585536888429	1073.923592090089	46.927393351472	305.439681459335	608.380602808506	1072.036730984867	196.720322452006	640.089779740574	811.276201394521	201.967739943846	896.917124811575	1112.980210657449	724.713687025003	1105.225318088555	1131.457002881995	582.946047670429	
